# xmcd
#
# Track frame offsets: 
#        182
#        44372
#        95337
#        123620
#        143325
#        164225
#        198717
#
# Disc length: 2923 seconds
#
# Revision: 3
# Processed by: cddbd v1.5.2PL0 Copyright (c) Steve Scherf et al.
# Submitted via: ExactAudioCopy v0.99pb4
#
DISCID=640b6907
DTITLE=Michel Jonasz - La fabuleuse histoire de Mister Swing - CD2
DYEAR=1988
DGENRE=Pop
TTITLE0=Ne garde rien
TTITLE1=Le temps passé
TTITLE2=Une prière
TTITLE3=Si si si le ciel
TTITLE4=A chaque saison qui passe
TTITLE5=La fabuleuse histoire de Mister Swing
TTITLE6=Ôm les hommes
EXTD=
EXTT0=
EXTT1=
EXTT2=
EXTT3=
EXTT4=
EXTT5=
EXTT6=
PLAYORDER=
